<svg xmlns="http://www.w3.org/2000/svg" width="1200" height="630" viewBox="0 0 1200 630" fill="none">
  <defs>
    <linearGradient id="bg" x1="120" y1="30" x2="1080" y2="630" gradientUnits="userSpaceOnUse">
      <stop stop-color="#0B1C2E"/>
      <stop offset="1" stop-color="#030914"/>
    </linearGradient>
    <radialGradient id="glow" cx="0" cy="0" r="1" gradientUnits="userSpaceOnUse" gradientTransform="translate(947 135) rotate(133.9) scale(430 420)">
      <stop stop-color="#4CE0D7" stop-opacity=".22"/>
      <stop offset="1" stop-color="#4CE0D7" stop-opacity="0"/>
    </radialGradient>
    <linearGradient id="accent" x1="145" y1="80" x2="360" y2="320" gradientUnits="userSpaceOnUse">
      <stop stop-color="#A2FFF8"/>
      <stop offset="1" stop-color="#4DCAC6"/>
    </linearGradient>
    <pattern id="grid" width="56" height="56" patternUnits="userSpaceOnUse">
      <path d="M56 0H0V56" stroke="#9DBCDD" stroke-opacity=".065"/>
    </pattern>
  </defs>
  <rect width="1200" height="630" fill="url(#bg)"/>
  <rect width="1200" height="630" fill="url(#grid)"/>
  <rect width="1200" height="630" fill="url(#glow)"/>

  <g transform="translate(92 82)">
    <rect width="78" height="78" rx="18" fill="#0E263A" stroke="#5FE9E1" stroke-opacity=".42" stroke-width="2"/>
    <path d="M19 23 39 14l20 9v15c0 11.8-7.8 19.8-20 25-12.2-5.2-20-13.2-20-25V23Z" stroke="url(#accent)" stroke-width="4"/>
    <path d="M29 39h20M39 29v20" stroke="url(#accent)" stroke-width="4" stroke-linecap="round"/>
  </g>

  <text x="92" y="220" fill="#F4F8FC" font-family="Segoe UI, Arial, sans-serif" font-size="76" font-weight="750" letter-spacing="-4">WinReclaim</text>
  <text x="92" y="284" fill="#9EB2C7" font-family="Segoe UI, Arial, sans-serif" font-size="30">Understand storage before deleting it.</text>
  <text x="92" y="344" fill="#6FECE4" font-family="Consolas, monospace" font-size="17" font-weight="700" letter-spacing="2">LOCAL-FIRST WINDOWS STORAGE INTELLIGENCE</text>

  <g transform="translate(92 408)">
    <rect width="244" height="58" rx="10" fill="#94FAF2"/>
    <path d="M25 17.5 40 14v15H25V17.5Zm17-4L58 10v19H42V13.5ZM25 31h15v15l-15-3.5V31Zm17 0h16v19l-16-3.5V31Z" fill="#041214"/>
    <text x="78" y="36" fill="#041214" font-family="Segoe UI, Arial, sans-serif" font-size="18" font-weight="750">Download for Windows</text>
  </g>

  <g transform="translate(700 105)">
    <rect width="405" height="420" rx="18" fill="#091625" stroke="#8EB5D3" stroke-opacity=".2" stroke-width="2"/>
    <rect x="1" y="1" width="403" height="47" rx="17" fill="#07111E"/>
    <circle cx="374" cy="24" r="5" stroke="#5A7188"/>
    <circle cx="354" cy="24" r="5" stroke="#5A7188"/>
    <circle cx="334" cy="24" r="5" stroke="#5A7188"/>
    <text x="22" y="29" fill="#C9D7E4" font-family="Segoe UI, Arial, sans-serif" font-size="13" font-weight="700">WinReclaim</text>

    <text x="28" y="92" fill="#6F8AA3" font-family="Consolas, monospace" font-size="10" font-weight="700" letter-spacing="1">STORAGE OVERVIEW</text>
    <text x="28" y="128" fill="#F4F8FC" font-family="Segoe UI, Arial, sans-serif" font-size="27" font-weight="750">27.5 GB can be reclaimed</text>

    <rect x="28" y="155" width="349" height="80" rx="10" fill="#0D1C2D" stroke="#9DBCDD" stroke-opacity=".12"/>
    <circle cx="76" cy="195" r="28" stroke="#173044" stroke-width="8"/>
    <path d="M76 167a28 28 0 1 1-23.3 43.5" stroke="#64E7E0" stroke-width="8" stroke-linecap="round"/>
    <text x="118" y="190" fill="#6F8AA3" font-family="Consolas, monospace" font-size="9" font-weight="700">WINDOWS DRIVE</text>
    <text x="118" y="214" fill="#F2F7FB" font-family="Segoe UI, Arial, sans-serif" font-size="16" font-weight="700">Review before cleanup</text>

    <g transform="translate(28 255)">
      <rect width="349" height="44" rx="8" fill="#0C1929" stroke="#9DBCDD" stroke-opacity=".1"/>
      <rect x="12" y="11" width="22" height="22" rx="5" fill="#183A45"/>
      <text x="48" y="19" fill="#7790A7" font-family="Segoe UI, Arial, sans-serif" font-size="9">Hugging Face cache</text>
      <text x="48" y="34" fill="#F0F6FB" font-family="Segoe UI, Arial, sans-serif" font-size="12" font-weight="700">11.8 GB</text>
      <text x="260" y="28" fill="#78DFA6" font-family="Segoe UI, Arial, sans-serif" font-size="9" font-weight="700">Redownloadable</text>
    </g>
    <g transform="translate(28 309)">
      <rect width="349" height="44" rx="8" fill="#0C1929" stroke="#9DBCDD" stroke-opacity=".1"/>
      <rect x="12" y="11" width="22" height="22" rx="5" fill="#183A45"/>
      <text x="48" y="19" fill="#7790A7" font-family="Segoe UI, Arial, sans-serif" font-size="9">Project build output</text>
      <text x="48" y="34" fill="#F0F6FB" font-family="Segoe UI, Arial, sans-serif" font-size="12" font-weight="700">8.4 GB</text>
      <text x="282" y="28" fill="#64E7E0" font-family="Segoe UI, Arial, sans-serif" font-size="9" font-weight="700">Rebuildable</text>
    </g>
    <g transform="translate(28 363)">
      <rect width="349" height="34" rx="8" fill="#8CF7EF"/>
      <text x="174.5" y="22" fill="#041214" text-anchor="middle" font-family="Segoe UI, Arial, sans-serif" font-size="11" font-weight="800">Review storage report</text>
    </g>
  </g>

  <text x="92" y="565" fill="#667D93" font-family="Segoe UI, Arial, sans-serif" font-size="16">Deterministic cleanup · Safe Undo Vault · No telemetry · MIT licensed</text>
</svg>
